<svg fill="none" height="24" viewBox="0 0 24 24" width="24" xmlns="http://www.w3.org/2000/svg"><g fill="#c22e33"><path d="m11.6485 3c.2201.20009.4408.39969.6614.59929.4906.4437.9814.88759 1.4652 1.33681 3.1394 2.91636 5.7973 6.1976 7.7969 9.9734.102.1936.1948.3917.2876.5899.0464.099.0927.1981.1403.2966l-.1544.0835-.1159-.168c-.1004-.1453-.2007-.2906-.299-.4371l-.2106-.3126c-1.4559-2.1622-2.9141-4.3278-4.9166-6.05843-.5981-.51646-1.2786-.97511-1.9905-1.32199-1.4487-.70789-2.7377-.42525-3.8435.73872-1.05081 1.10616-1.59652 2.4795-2.08988 3.8773-.06359.18-.13083.3585-.19811.537-.03929.1043-.07867.2089-.11727.3135l-.24602-.0796c.14214-.5087.27425-1.021.40635-1.5333.29963-1.1619.59927-2.3239 1.01614-3.44379.44485-1.1927 1.00319-2.34345 1.56159-3.49422.2415-.49785.4831-.99574.7155-1.49699z"/><path d="m12.6406 17.3557c-2.3228 1.1241-7.94345 2.2855-10.60916 1.9875-.43578-2.3472 3.83956-13.34846 5.93993-15.01477-.05271.12192-.09658.22648-.13546.31914-.07499.17873-.13144.31326-.19693.44271l-.0951.18753c-1.08383 2.13699-2.16941 4.27742-2.72503 6.62159-.19106.8055-.31931 1.6432-.32585 2.468-.0144 1.9592 1.17647 3.2915 3.16691 3.375.95866.0403 1.9243-.063 2.88989-.1662.4197-.0449.8394-.0898 1.2585-.1229.1526-.012.3041-.0316.5017-.0571.0971-.0126.2055-.0266.3306-.0418z"/><path d="m6.0359 21.6799c-.63535.0496-1.27066.0991-1.90422.1582h-.00131c5.85226.5692 11.47153-.406 17.01503-2.4037-1.8073-3.2581-4.2414-5.8327-7.0733-8.0695.0367.1421.1194.246.2012.3487.0232.0292.0464.0583.0684.0881.2427.3303.4974.6544.7521.9785.5846.7439 1.1694 1.4878 1.6087 2.3066 1.1124 2.0749.5091 3.8696-1.6685 4.8178-1.4317.6244-2.9955 1.0496-4.5436 1.3027-1.47034.2397-2.96254.3561-4.4545.4726z"/></g></svg>